<svg version="1" xmlns="http://www.w3.org/2000/svg" width="1226.667" height="1226.667" viewBox="0 0 920.000000 920.000000"><path d="M441.5 101.7c-2.7.8-6.9 2-9.2 2.6-4.9 1.4-12.3 8-14.7 13.2-.9 1.9-2.3 3.5-3.1 3.5-1.8 0-1.9-1.2-.2-2.9.9-1 .4-1-1.8.1-4.4 2.2-11.4 3.9-15.8 3.8-2.2 0-4.4.3-5 .8-.7.5-3.5 1.2-6.3 1.4-5.9.5-15 5.7-24.5 13.9-3.1 2.6-7.8 5.6-10.5 6.5-2.7.9-5.7 2.4-6.6 3.4-1 1-2.6 2.1-3.7 2.5-1.2.3-2 .9-1.8 1.3.3 1.1-6.2 8.8-10.5 12.2-4.2 3.4-6.4 3.4-3.3 0 1-1.1 1.6-2.3 1.3-2.6-.3-.3-2.2 1.8-4.3 4.6-4 5.5-5 6.1-4 2.7.5-1.8.2-1.6-1.4.8-1.2 1.6-2.1 3.6-2.1 4.3 0 2-7.2 8.4-8.7 7.8-.7-.3-1.3-.1-1.3.5s-2.3 3.6-5 6.7c-8.7 9.8-14.5 21.2-10.9 21.2.7 0 .4 1.1-.7 2.7-1.4 2.2-1.4 2.5-.2 1.5 2.2-1.8 3.3.2 1.3 2.2-2.3 2.2-6.9.1-6.1-2.8.5-2.1.5-2.1-.9-.2-.8 1.1-1.5 2.4-1.5 2.8 0 .5-.9.4-2-.2-1.4-.8-2-.8-2 0 0 1.7-8.5 14.2-11.5 17-1.5 1.4-3.4 3.8-4.2 5.5-1.6 3-1.6 3 3.3-1 2.7-2.2 5-4.2 5.2-4.6.1-.3.9-1.5 1.7-2.5 1.4-1.8 1.4-1.8 1.5.2 0 3.7-6.2 9.4-14.7 13.3-3.8 1.8-5.8 4.1-3.5 4.1.5 0-.1 3-1.2 6.6-2 6.5-2.1 6.6-3.2 3.9-1.6-4-2.2-1.4-1.6 8 1 15.9 1.2 14.7-3.5 16.5-7.4 2.7-14 10.7-15.8 19-.4 2-2.4 5.2-4.6 7.4-4.5 4.4-5.4 7.4-1 3.2l2.8-2.7.7 2.3c1.1 4.2.7 7.8-.8 7.2-.7-.3-1.6.2-1.9 1-.8 2.1-2.7 2-2.8-.2 0-1-.4-.7-.8.9-.5 1.4-1.3 3.5-2 4.6-.7 1.4-.8 2.4-.1 2.8.6.3.6 1.3.1 2.3-2.5 4.9-4.1 9.5-4.1 11.6 0 1.2-1.1 3.3-2.5 4.6-2.5 2.4-3.3 5-1.5 5 2.2 0 .7 2.7-4.1 7.4-4.6 4.6-5 4.8-5.6 2.8-1.2-4.6-2.1-1.8-2.2 6.7-.1 5.6.3 9.2 1 9.6.7.5 0 1.8-1.8 3.9-5.2 5.6-6.6 8.5-5.4 11.3 1 2.1.8 2.5-1.4 3.3-2.3.9-3.6 4-1.6 4 1.2 0 2.8 5 2.3 7.7-.2 1.7-1.4 2.5-4.3 3.3-7.3 2-10.5 4.6-13.3 11.1-4.6 10.5-3 19.3 4.5 25.7 3.9 3.3 4.1 3.8 3.6 7.8-.3 3.3-.1 4.1.9 3.7.9-.3 1.5.8 2 3.6.4 2.3 1.1 4.4 1.5 4.7 1.3.8.1 2.4-1.8 2.4-.9 0-2.5.7-3.5 1.7-1.1.9-1.8 1.1-1.8.5 0-.7-.7-1.2-1.6-1.2-1 0-1.4.6-1.1 1.5.4.8-.5 2.2-2.1 3.3-5 3.6-9.4 3.8-6 .4.7-.7.9-1.2.5-1.2s-3 2.3-5.7 5c-5.4 5.5-5.8 6.9-3.8 14.6 1.2 4.4 1.2 4.7-1.4 6.9-3 2.6-5.4 6.9-7.2 12.9-1.4 4.6-1.4 5.5.5 14 .9 4.6 1 6.1.1 6.4-.7.2-1.2.8-1.2 1.4 0 .5 1 .6 2.2.2 2.1-.6 2.2-.5.8 1.2-.8 1-2.5 3.1-3.9 4.6-2.6 2.9-1.9 3.4 2.2 1.9 3.3-1.3 4.5 1.4 2 4.1-2.4 2.7-2.5 6.8-.1 6.8 1 0 1.8.7 1.8 1.6 0 .8-.4 1.3-.9 1-.4-.3-1.6.3-2.6 1.4-1.9 2.1-4.5 2.7-4.5 1 0-.6-.4-1-1-1-1.8 0-1 2.9 1 3.5 2.9.9 2.5 2.3-.5 1.7-1.5-.2-2.5 0-2.5.7 0 .6 1.4 1.4 3 1.7 3 .6 4.2 2.3 1.8 2.5-.7.1-2.4.2-3.7.2-1.3.1-2.6.8-2.9 1.6-.3.9.1 1.1 1.5.7 2.8-.9 4.9 1.7 2.8 3.4-.8.7-1.5 2-1.5 2.9 0 1-.7 2.6-1.5 3.7-1.9 2.6-1.9 4.3 0 1.8 1.5-1.8 1.6-1.7 1 1.3-.5 2.7-.4 3.2.9 2.7 1.1-.4 1.9.2 2.6 2.1.6 1.5.9 3 .7 3.2-.2.2-2.8.5-5.8.6-5.2.2-5.4.3-6.4 3.9l-1 3.6-5-1.9c-2.7-1-5.9-1.6-7-1.3-5.5 1.7-8.8 4-11 7.9-3.3 5.5-3.3 11.3 0 18 2.4 4.7 2.9 5.2 6.1 5.3l3.5.1-4.6-4.2c-4-3.6-4.8-4.9-5.2-8.8-.9-7.9 2.9-13 10.1-13.5 6.9-.5 12.4 4.8 7.9 7.5-1.6.9-1.6 1.2-.3 2.1 1.1.8 1.2 1.2.3 1.8-.7.4-1 1.7-.6 3 .6 2.5 1.8 2.9 2.7.7.7-1.9 3.3-1.9 3.3 0 0 .8-.2 1.3-.5 1-.7-.6-4.2 1.4-4.2 2.5 0 .5 1.2 2 2.7 3.4l2.7 2.5-2.8 1.1c-1.5.5-3.6 1-4.7 1s-1.7.4-1.4 1c.9 1.5 6.6-.1 10.5-2.9 1.9-1.3 2.9-1.9 2.3-1.1-1.6 1.8-1.7 5-.1 5 .6 0 .4.8-.6 1.9-1 1.1-1.5 2.4-1.2 3 1.2 1.8 3.2.1 5-4.4 1.3-3.1 2.4-4.3 3.7-4.2 1.1.1 1.9.5 1.9 1s-.6.7-1.4.4c-2.2-.9-3 2.5-1 4 .9.7 2 1 2.5.8.4-.3 1.9-.1 3.2.4 2.8 1.1 5.3-.8 4.4-3.2-.3-.7.4-1.9 1.5-2.6 1.1-.7 1.7-.8 1.3-.2-.4.7.4 1.1 1.9 1.1 3.7 0 3.2 1.7-.9 3.4-3.2 1.4-5.2 4.5-2.1 3.3 1.6-.6 5.6 2.4 5.6 4.1 0 2.1-2.3 2.5-3.7.7-1.6-2.2-1.7-1.6-.3 2 .9 2.3.7 2.8-.9 3.2-2 .5-3.6 3.1-2.6 4.1.3.3 2.1.5 4 .4 1.9-.1 3.5.1 3.5.3 0 .3-1.9 1.4-4.1 2.6-2.3 1.1-4.3 2.8-4.6 3.8-.3 1.2-1.5 1.7-4 1.7-2 0-3.8.5-4.1 1.2-.5 1.6-3.2 1.5-3.2-.1 0-.6-.5-.4-1.1.6-1.2 2.1-5.1 2.4-4.3.3.7-1.8-1.5-3.1-2.9-1.7-.8.8-.8 1.4 0 2.2.8.8.8 2 .3 3.5-.5 1.3-.6 2.3-.2 2.1 1.2-.4 1.2 1.6.1 5-.7 2.3-2.2 3.8-5.5 5.3-3.5 1.7-4.3 2.6-3.9 4.1 1.2 3.5-5.9 13.5-8.7 12.4-2.3-.9-7.1 4.6-6.2 7 .4.8.1 2.1-.5 2.9-2.1 2.5.1 2.5 2.5-.1 1.3-1.4 2.4-2.2 2.5-1.7.2 2.8 1 5.6 1.9 6.7 5.1 6.3 5.9 7.7 5.4 9.1-.9 2.3-2.7 2-1.9-.3.3-1.2 0-2.1-.9-2.4-1-.4-1.3-.1-.9.9.8 2.2-.6 6.4-2.2 6.4-.8 0-1.5-.4-1.5-.9s-.6-1.1-1.4-1.4c-1-.4-1.2 0-.9 1.4.3 1.1 1 2.2 1.5 2.5.5.3.3 1.3-.4 2.2-1.1 1.3-1.1 1.4.2.7 2-1.3 3.1-1.3 5.3-.3 1 .6 1.7.5 1.7-.2 0-.6.8-.6 2.2.2 1.3.7 2.4 1.3 2.6 1.4.1.1 0 .9-.4 1.8s-1.3 1.5-2 1.2c-1.2-.4-1.1.1.1 3.1 1.9 4.4 1.9 4.5-.1 4.1-1-.2-1.9.3-2.2 1.1-.3.9 0 1.1.8.6.9-.5 1.1-.4.6.3-1.2 1.9-5.1.7-4.8-1.4.2-1.5.1-1.6-.7-.5-.6.9-.6 2.2-.1 3.2.8 1.4.4 1.6-2.3 1.5-1.8-.1-3.8-.5-4.4-.9-1.7-1.1-1.6-.1.3 2.8 1.5 2.3 1.5 2.5 0 2.5-.9 0-1.6.7-1.6 1.6 0 .8.4 1.3.8 1 .5-.3.9.1.9.9s-.6 1.5-1.3 1.5c-.7 0-1.5.4-1.8.9-.4.5.4.7 1.6.5 1.3-.2 1.7-.2 1.1.2-2.2 1-1.5 2.4 4.3 9.6 18.9 23.4 53.6 54.1 85.4 75.7 20 13.5 32.6 20.9 53 31.2 109 54.8 235.9 63.8 352 24.9 80.7-27 152.6-76.2 207.3-141.9 4.8-5.7 8.7-11.1 8.7-12 0-2.7-10.4-23.1-15.5-30.6-9.9-14.5-18.4-22.2-41.7-37.7-19.3-12.8-25.5-15.8-32.4-15.8-2.6 0-7.1-.8-10.1-1.7-4.7-1.5-6.4-1.5-13.9-.5-4.7.7-15.6 3-24.2 5.2-19.5 4.8-28.6 6.6-93.7 19-48.8 9.2-74.6 11.1-122 9.1-40.9-1.7-49.8-4.2-47-13 .3-1.1.2-2.9-.4-3.9-.5-1-1.2-4.1-1.5-6.8-.3-2.7-1.2-6.7-2-8.9s-1.5-5.9-1.6-8.2c0-2.3-.4-4.5-1-4.8-.5-.3-1-2.4-1-4.5s-.4-4.1-.8-4.4c-.5-.3-.8-2.8-.8-5.6.1-2.7-.3-5.2-.9-5.4-.5-.3-.4-.5.3-.5.6-.1 1.2-1.4 1.2-3s.3-3.6.6-4.5c.8-2.1 6-2.1 6.8 0 .3.8 1 1.3 1.5 1 .4-.3 2.2-.1 4 .4 2.2.6 3.9.5 5.7-.5 1.5-.7 3.9-1.2 5.5-1 2.7.4 2.9.2 2.9-3 0-1.9.4-3.6.9-4 .5-.3.9-2.8.7-5.5-.1-3.8.2-5.3 1.7-6.5 1.4-1.2 1.6-2 .8-2.8-1.4-1.4-1.5-4.7-.1-4.7.6 0 1-.6 1-1.4 0-1.2 1.4-1.4 7-1.2 3.9.2 7.3 0 7.6-.5.3-.5-.5-.9-1.8-.9-6.1-.2-15.8-8.8-15.8-14.1 0-.9-.6-1.9-1.4-2.2-.9-.4-1.6-2.3-1.8-4.9-.2-2.9-.7-4.2-1.6-4-.8.1-1.1-.2-.8-.7.4-.5.2-1.2-.4-1.6-.6-.3-2-2.5-3.1-4.8-1.2-2.3-2.5-4.4-2.8-4.7-1.1-.9-4.2-6-3.6-6 .4 0-.1-.7-.9-1.6-.9-.8-1.6-2.2-1.6-3 0-.8-.4-1.4-1-1.4-.5 0-.7-.7-.4-1.5.4-.8 1-1.3 1.4-1 1 .6 2.2-2.4 1.4-3.6-.8-1.4 4.1-2.9 7.3-2.1 1.5.3 5.8.6 9.6.5 7.4-.1 11.2-1.8 12.7-5.9.5-1.3 1.5-2.3 2.2-2.2 2.4.5 1-4.8-2-8.2-3.9-4.2-5.6-7.5-4.9-9.4 1-2.5 10.4-4.5 21.2-4.5 11.1.1 16.1-.5 22.6-2.5l4.4-1.4-7-.2c-3.8-.1-8-.3-9.2-.4-1.2-.1-2 .1-1.8.5.3.3-2 .6-4.9.5-3 0-5.3-.6-5.3-1.1.1-.6-.3-.9-.9-.8-2.2.4-1-2.6 1.3-3.2 1.3-.3 2.3-1.1 2.3-1.7 0-.7.7-.3 1.6.8.8 1 1.2 1.2.8.4-.7-1.3-.5-1.3.9-.1 1.1.9 1.7 1 1.7.2 0-.6.4-1.1.9-1.1.6 0 .8.9.6 2-.2 1.1 0 1.8.5 1.5.4-.3.7-1.3.5-2.3-.2-.9-.4-2-.4-2.4-.1-.3-3.4-.6-7.3-.5-5.8.1-8.6-.4-13.8-2.5-5.5-2.2-11.3-3.5-16.7-3.7-.7-.1-1.3-.7-1.3-1.5 0-.9.7-1.2 2-.9 2.1.6 10.5-6.6 11.5-9.8.3-1 2.8-2.8 5.5-4 6.9-3.1 8.1-6.7 4.3-12.3-3.2-4.5-8.9-9-15.1-11.7-4.2-1.8-4.2-1.9-3.8-6.3.2-2.5-.1-4.3-.5-4-1.3.8-2.2-2.3-1.5-5.1.4-1.4 1.5-3.3 2.5-4.2 1.1-.9 1.7-2.2 1.4-2.9-.3-.8.5-1.8 2.1-2.4 1.4-.5 2.6-1.4 2.6-1.9s.7-1.6 1.5-2.4c1.5-1.6 1-9.1-.6-8.1-1.1.7-1.1.4.2-3.4.7-2 1.5-2.9 2.2-2.5.7.3.9.3.5-.1-.4-.5-.3-1.8.1-3 .6-1.3.4-2.5-.4-3.3-.8-.8-1-2.4-.6-5 .4-2.1.7-12.4.6-22.8-.1-18.9-.1-19-2.9-24-5.1-9.1-8.8-11.8-24.1-18-14.7-5.9-28.9-9.4-41.8-10.4-.4-.1-.3-1 .3-2 1.2-2.3.3-5.4-1.4-4.4-.6.4-.4-.2.4-1.2.9-1.1 1-1.6.3-1.1-1.4.8-1.8-.6-.6-1.8 1-1 1.5-3.6 1.6-7.9 0-2 .4-3.7.9-3.7.4 0 .8-1.3.8-2.8 0-2.1.7-3.2 2.6-4.1 2.2-1 2.4-1.4 1.3-2.7-1-1.3-1-1.7.2-2.5.8-.5 1-.9.5-.9s-.4-.6.2-1.3c.6-.7.8-2.4.5-3.7-.4-1.5-.2-2.1.4-1.7 1 .6 1.9-3.4 2.5-11.3.1-1.4.7-2.8 1.3-3.2.6-.5.6-.8-.2-.8s-.9-.8-.3-2.8c2-6.3 3.3-11.8 3.1-12.6-.1-.4.3-1.4.9-2.1.6-.7 1.3-2.2 1.5-3.3.2-1.2 1.4-3.4 2.6-5.1 1.3-1.8 2-3.8 1.6-5-.3-1.2 0-2.4.7-2.9.7-.4 3.6-3.7 6.5-7.5 2.9-3.7 5.9-6.7 6.7-6.7.8 0 1.1-.6.7-1.7-.5-1.2-.2-1.5 1-1 .8.3 2 0 2.6-.7 1.3-1.6.4-2.7-1.6-1.9-1 .4-1.4.2-1.1-.7.3-.9 2.2-1.5 5.1-1.6 2.6-.1 6.2-1.1 8-2.2 1.8-1 4-1.8 5-1.6.9.1 1.5-.2 1.2-.6-.3-.5 1.6-1.1 4.2-1.5 2.7-.3 6.2-.7 8-1 1.7-.2 3.4-.1 3.7.2.9.9 10 .9 12 0 1.2-.6 2.1-.5 2.6.3.6.9 1.4.8 3.5-.6 2.7-1.8 6.6-2.6 12.3-2.4 1.8 0 5.5-1 8.1-2.3 3.9-1.9 4.8-2 4.7-.7-.1 1.1.7 1.4 3.1 1.2 2.6-.3 3.2 0 2.7 1.1-.4 1.2.9 1.5 7.9 1.3 7.1-.1 9.1.3 13.3 2.4 2.7 1.4 5.1 2.8 5.4 3.1.3.3 1.6 1 3 1.4 1.4.4 3.6 1.6 5 2.7 1.5 1.2 3.3 1.7 4.6 1.4 1.9-.5 5.5 1.9 4.7 3.1-.8 1-.1 2.4 1 2 1.7-.6 7.7 3.9 7.7 5.8 0 2.2 6 7.5 8.5 7.5 3.3 0 7.8 4.1 9.4 8.6.7 2.2 2.4 5.6 3.7 7.6 1.3 2 2.4 5.4 2.5 7.5.1 2.1.8 4.5 1.5 5.3.7.9 2.4 4 3.8 7.1 2.4 5.6 2.7 9.4 1.1 19-.4 2.7-.3 5.4.3 6.4.7 1.3.5 2.8-.4 5.1-.9 2-1.4 6.8-1.4 12.1.1 7.3.6 10 3 16.3 1.8 4.5 3 9.4 3 12.1 0 2.6.4 6.8.9 9.6 1 5.2 2.2 25.1 2.4 42.3.2 8.4.5 10.5 1.7 10.5.8 0 1.7 1.1 2 2.5l.6 2.5.8-2.9c.4-1.7 1.6-4.2 2.7-5.7 2.3-3.2 2.5-4.6.4-2.9-2.3 1.9-3.5.3-1.9-2.8.7-1.5 1.4-3.3 1.4-4 0-2.3 7.8-15.2 9.2-15.2.5 0 .6.4.3 1-.4.6.8 1 2.9 1 5.1 0 4.7 2.7-1.4 10.1-5.3 6.4-6.3 9.8-3 10.6 1.4.4 1.7.9 1.1 1.7-.5.6-2.8 5.4-5.1 10.6-2.3 5.2-6.3 13.9-9.1 19.4-2.7 5.4-4.9 11.1-4.9 12.7 0 1.5-.6 4.8-1.4 7.1-.8 2.4-1.9 10.4-2.5 17.8-.7 8.3-2.1 16.8-3.6 22-4.5 15.4-19.7 43.4-32.5 60-4.4 5.7-4.7 6.8-5.9 21-1.4 16.4-.4 21.2 5.9 28 2.2 2.4 4 4.6 4 5 0 1.3 15.2 17 16.5 17 .7 0 1.5-.7 1.9-1.5.8-2.3 4.6-1.9 4.6.4 0 1.1-.5 2.3-1 2.6-1.8 1.1.9 3.4 8.3 7.2l6.9 3.4 2.7-2.5c5.2-5 9.4-2.1 5.6 3.8-1.5 2.3-1.4 2.3 5.6 5.4 5.3 2.4 7.5 2.9 8.9 2.2 3.3-1.8 7.8-1.2 8.5 1 .3 1.1.4 2.4 0 2.9-.5.9 3.1 4.1 4.7 4.1.4 0 1.6-1.7 2.5-3.7 1-2 2.4-3.8 3.1-4.1 1.7-.5 1.5 4.3-.3 7.2-1.4 2.1-1.4 2.3 1 3.4 3.4 1.6 4.3-.5 4-8.8-.3-8.6-.2-8.3-2.4-10.6-1-1.1-2.4-3-3-4.2-.7-1.4-2.1-2.2-3.6-2.2-2.5 0-3.3-1.4-1.5-2.5 1.3-.8-1-4.5-3-4.6-.8 0 .9-.6 3.8-1.3 7.3-1.8 10.5-4.9 11.7-11.3.2-1.7 1.6-5.4 3-8.4 2.2-4.9 2.4-6.1 1.7-12.7-.9-8.1-2.7-10.8-8.4-12.6-5.1-1.7-4.5-5.1 1.5-9.2 3.5-2.4 4.3-3.4 3-3.6-1-.3-2.9-.1-4.2.4-1.3.5-2.7.6-3 .2-1-1 3.2-3.4 7.2-4.1 2.5-.4 3.4-.9 2.6-1.4-1-.6-.6-1.1 1.4-1.8 2.4-.9 2.7-1.6 2.6-5.3-.1-10.1-3-17.8-6.5-17.8-1.3 0-1.3-1.7 0-3.8.6-1-.1-.9-2.4.3-2.6 1.3-3.4 1.4-4 .4-.5-.7-2.9-1.3-5.6-1.3-4.8-.1-4.8-.1-6.5-4.7-1.5-4.3-1.5-4.8.1-6.9 1.3-1.8 2.3-2.1 4.3-1.6 1.4.3 2.9.2 3.2-.4.3-.5.1-1-.4-1-.6 0-1.1-.5-1.1-1 0-.6 1.6-1 3.5-1 2.6 0 3.3-.3 2.9-1.5-.4-1 0-1.5 1.1-1.5 2 0 5.4-3.8 5.5-6 0-.9-.7-2.6-1.6-3.8-1.2-1.8-1.4-3.2-.7-6.5 1.1-5-.3-9.7-2.8-9.7-.9 0-1.9-.6-2.1-1.3-.8-2 .2-3.7 2.3-3.7 1.3 0 1.9-.7 1.9-2.4 0-1.4.4-2.7.9-3 .5-.3 1.1-2.2 1.3-4.1.3-3.1.2-3.4-1.5-2.9-2.2.7-4.9-2.4-4.1-4.6 2.2-5.8 3-12.4 2.1-16.5-.4-2.1-.5-5-.2-6.2.4-1.6.1-2.3-.9-2.3-2.8 0-2.8-2.2-.2-4.9 2.5-2.6 2.5-2.9 1-4.2-.9-.7-3.1-1.2-4.9-1-4.4.3-5.2-1.4-2.5-5.1 1.3-1.7 1.7-2.7 1-2.3-.9.6-1.1-.1-.8-2.9.3-2.7.1-3.5-.9-3.2-.7.3-1.3-.1-1.3-.9 0-1.4 1.2-1.9 3.3-1.6.4 0 .7-2 .7-4.5 0-3.2-.3-4.3-1.2-3.8-.8.5-.9.2-.3-1.2.4-1 1-3 1.3-4.4.2-1.4.9-3 1.4-3.7.7-.8.5-2.2-.5-4.2-1.6-3.1-1.3-4 1.7-5.7 1.1-.6 2.3-2.3 2.7-3.8.6-2.2.5-2.5-.5-1.6-.8.5-2.1.7-3.1.4-1.4-.6-1.6-.3-1.1 1.4.4 1.1.2 2.3-.5 2.7-1.6 1.1-3-1.6-1.7-3.2.8-1 .6-1.7-.7-2.7-1.7-1.2-1.7-1.6-.3-5.2 1-2.6 2.3-4 3.7-4.2 1.7-.3 2-.8 1.6-2.3-.4-1-.7-3.4-.7-5.1 0-1.8-.5-3.8-1-4.5-.5-.7-1.2-2.5-1.4-4-.2-1.5-.7-3.9-1-5.3-1.1-4.6-.7-7.7 1.2-10.3 1-1.5 2.4-2.5 2.9-2.3 1.6.5 4.5-1.3 4.5-2.9 0-.7-.8-2.1-1.7-3.1-1-1-1.6-2.9-1.5-4.9.2-1.9-.2-3.6-.8-4-.5-.3-.8-1.6-.4-2.8.3-1.6-.5-3.6-3.1-7-2-2.6-4-4.7-4.5-4.7-.6 0-.9-3.8-.9-8.5.1-5.4-.3-9-1.1-10-1-1.2-.8-1.9.9-4.1 1.8-2.3 1.9-2.9.7-5.3-.7-1.4-1.2-3.8-1.1-5.2.2-1.6-.6-3.7-2.1-5.5-1.4-1.6-2.3-3.6-2.1-4.5.3-1.2 0-1.6-.9-1.2-.7.3-2-.2-2.9-1-1.2-1.3-1.3-2.1-.4-4.1.7-1.4.8-3.3.4-4.3-.5-1-.7-2.1-.7-2.6.3-1.1-1.6-.9-2.3.3-.3.5-1.2 1-1.8 1-.7-.1-.2-.9 1.1-1.9 2.8-2.4 3-8.3.3-12.7-1.3-2.2-1.6-3.6-.9-4.7 1.2-2.3.2-3.7-2.8-3.7-2.5 0-3.2-1.8-1.3-3.7 1.3-1.3-2.6-5.8-4.1-4.8-2.1 1.3-.9-3.3 1.3-4.9 1.5-1.2 1.8-1.8 1-2.2-.7-.3-1.3-1.4-1.3-2.4 0-3.1-1.1-4.9-2.6-4.3-.8.3-1.4 0-1.4-.6 0-.7-.7-.7-2.4 0-1.8.9-3.3.8-5.7 0-2.2-.8-3.6-.8-4.3-.1-1.3 1.3-2.9 1.3-2.1 0 .3-.6.2-1-.3-1-1 0-2.5-3.7-2.3-5.6.1-.6-1.7-1.6-3.9-2.3-2.3-.7-4.3-1.8-4.6-2.5-.3-.8-1.6-1.1-3.5-.8-2.4.4-3.1 0-3.6-1.7-.3-1.1-1.1-2.1-1.7-2.1-.7 0-2.2-.9-3.4-2-1.2-1.1-2.5-2-2.9-2-1.3-.1-5.3-3.7-5.3-4.9 0-.6-.7-.8-1.5-.5-1.1.5-1.5-.2-1.5-2.6 0-2.3-.4-3.1-1.4-2.7-.9.4-1.6-.9-2.3-4-.9-3.6-.8-4.6.3-5 1.1-.4.8-1.1-1.1-2.7-1.5-1.3-2.5-3.3-2.6-5.1-.1-2.1-.3-2.4-.6-1-.9 3.4-2.4 4.7-4 3.4-1-.9-2-.9-3.8-.1-2.4 1.1-2.5 1-2.5-2.2 0-4.3 1.6-5.6 6.5-5.1l4 .5-2.2-1.9c-1.9-1.6-2.9-1.7-6.5-.9-2.4.5-5.1 1.4-6.2 2-1.5.8-2.4.5-4.5-1.6-1.4-1.4-2.6-3.6-2.7-4.8-.2-2.8-1.4-6.1-2.6-6.9-.5-.3-1-1.3-1.2-2.1-.8-5.6-9.4-9-15.8-6.3-1.8.7-5.8-1-5.8-2.5 0-1.3-9.4-6-11.9-6-1.1 0-2.1.4-2.3.9-.2.6-2.4.5-5.6 0-3.8-.7-5.7-.7-6.7.1-1 .8-1.4.7-1.7-.2-.4-1.1-1.1-1.1-3.9 0-4.2 1.6-15 1.9-20.4.6-3-.8-5.3-.7-9 .3zm9.5 2.3c0 .5-1.4 1-3.1 1-1.7 0-2.8-.4-2.4-1 .3-.6 1.7-1 3.1-1 1.3 0 2.4.4 2.4 1zm34 1.4c0 1.7-4.2 1.6-4.8-.2-.2-.7.6-1.2 2.2-1.2 1.5 0 2.6.6 2.6 1.4zm28.5 9.4c-.2.3-1.2.1-2.2-.2-1.5-.6-1.5-.9-.3-1.6 1.3-.8 3.5.8 2.5 1.8zm-42.8-.2c-.3.3-1.2.4-1.9.1-.8-.3-.5-.6.6-.6 1.1-.1 1.7.2 1.3.5zm3.3 1.4c0 .5-.7 1-1.6 1-.8 0-1.2-.5-.9-1 .3-.6 1-1 1.6-1 .5 0 .9.4.9 1zm46.6 1.1c1.6 1.7 1.6 2.2.4 2.9-2.2 1.4-3.5.7-3.8-2.3-.4-3.2.8-3.4 3.4-.6zm-7.1 1.9c-.3.5-1.1 1-1.6 1-.6 0-.7-.5-.4-1 .3-.6 1.1-1 1.6-1 .6 0 .7.4.4 1zm3.9 14.8c.2.4-.4.9-1.5.9-1.1.1-1.7-.2-1.4-.8.7-1.1 2.2-1.2 2.9-.1zm29.1 9.2c-.3.5-1.3 1-2.1 1s-1.4-.5-1.4-1c0-.6.9-1 2.1-1 1.1 0 1.7.4 1.4 1zM353 145.9c0 .6-.4 1.3-1 1.6-.5.3-1-.1-1-.9 0-.9.5-1.6 1-1.6.6 0 1 .4 1 .9zm-15 13.5c0 .2-.3 1.1-.6 2-.9 2.3-3.4 2-3.4-.4 0-1.3.7-2 2-2 1.1 0 2 .2 2 .4zm-18.9 25.9c-.8.8-1.1.7-1.1-.4 0-2 1.3-3.4 1.8-1.9.3.7-.1 1.7-.7 2.3zm-10.4 10.9c.3 3.1-1.5 4.8-4.8 4.8-3.7 0-3.7-1.8 0-3.1 1.6-.6 3.2-1.7 3.5-2.5.8-2 1.1-1.8 1.3.8zm-25.8 29.2c1.2 1.5.5 4.6-1.1 4.6-.6 0-.8-.7-.4-1.5.3-.8.1-1.5-.4-1.5-.6 0-1-.7-1-1.5 0-1.9 1.4-1.9 2.9-.1zm-8.9 10.7c0 1.4-1.7 1-2.3-.5-.4-1-.1-1.3.9-.9.7.3 1.4.9 1.4 1.4zm-6 5.4c0 .3-.4 1.3-.9 2.3-.6.9-1.2 2.9-1.5 4.3-.3 1.4-1.5 3.6-2.6 4.9-1.1 1.3-2 2.6-2 3 0 .3-1.6 1.4-3.5 2.3L254 260v-3c0-1.8.6-3.3 1.5-3.6.8-.4 1.5-1.4 1.5-2.3 0-2.4 2.8-6 6.4-8.2 3.1-1.9 4.6-2.3 4.6-1.4zm-30 55c0 1.6-.6 2.5-1.5 2.5-1.8 0-1.8-.5-.5-3.1 1.4-2.6 2-2.4 2 .6zm-2.4 15.2c-1 1-1.9-.5-1-1.8.6-1.1.8-1.1 1.2 0 .2.7.1 1.5-.2 1.8zm163.7 19.7c.8.8 2.2 1.3 3.2 1.2.9-.1 3.8.3 6.3.9 5.2 1.3 6.7 3.9 3 4.8-4.2 1.1-20.2.9-23.1-.2-2.4-.9-2.6-1.4-1.7-3 2.4-4.6 9.3-6.7 12.3-3.7zM417 344c0 .5-.5 1-1.1 1-.5 0-.7-.5-.4-1 .3-.6.8-1 1.1-1 .2 0 .4.4.4 1zm207.7.4c-.3.8-.2 1.6.3 1.8.4.2.4 2.7-.1 5.7-.8 5.5-2.7 8-4.1 5.8-1.1-1.7-1-5.5.2-6.2.6-.3 1-1.2 1-2 0-1.9 1.8-6.5 2.6-6.5.3 0 .4.6.1 1.4zM416 353.9c0 2.4-1.8 3.7-3.2 2.3-.8-.8-.7-1.6.2-2.7 1.7-2.1 3-1.9 3 .4zm2.9 8.2c-1.6 1-2.3.4-1.4-1 .3-.6 1.1-.8 1.7-.5.6.4.5.9-.3 1.5zm-4.9 9c0 .8-2.9 1.4-10.7 2.3-3.2.3-4.3.1-4.3-.9 0-1.9 1.5-2.7 7.5-4.1 4.3-1 5.2-.9 6.3.4.6.9 1.2 1.9 1.2 2.3zm204.8 4.9c-1.4 2.2-4.4 3.8-3.2 1.7 1.4-2.3 2.7-3.7 3.5-3.7.5 0 .4.9-.3 2zm15.2 4c0 .5-.4 1-1 1-.5 0-1-.5-1-1 0-.6.5-1 1-1 .6 0 1 .4 1 1zm-30 5.5c-.7.9-1.5 1.3-1.8 1-.3-.2.1-1.1.8-2 .7-.9 1.5-1.3 1.8-1 .3.2-.1 1.1-.8 2zm-407.9 5.2c-.9 1.6-1 1.5-1.1-.8 0-1.4.3-2.9.8-3.3 1.2-1.2 1.4 2.2.3 4.1zm231.2 2.1c-1.3.9-1.4 1.5-.6 2.3 1.3 1.3 4.7.4 3.9-1-.3-.5.1-1.1.9-1.5 1.6-.6 2 .5.8 1.8-.5.4-.8 1.1-.8 1.5 0 .5-1.5 2.2-3.2 3.9-3.9 3.5-4.1 4.2-1.1 3.7 1.7-.4 1.9-.2.9.8-.6.6-1.7 1.2-2.4 1.2s-1.2 1-1.1 2.1c0 1.6-.5 2-2.2 1.6-1.6-.3-2.4.2-2.9 1.7-.3 1.2-1.1 2.1-1.6 2.1s-.9.8-.9 1.9c0 1-.7 2.5-1.7 3.2-1.5 1.3-1.5 1.2-.4-.9 1.1-2 1-2.2-1.8-2.2-2.1 0-4.1 1.1-6.5 3.5-2 1.9-4.1 3.5-4.8 3.5-.9 0-.9-.3.2-1 .8-.5 1-1 .4-1s-1.4.3-1.8.7c-1.2 1.2-4 1.2-5.4 0-1.1-.8-1.6-.7-2.3.6-.6.9-1.8 1.7-2.7 1.6-1.4 0-1.3-.2.3-.9 1.8-.8 1.7-.9-.7-.9-1.5-.1-3 .4-3.3.9-1.1 1.8-2.7-.1-2.1-2.6.5-1.8 0-2.7-1.8-4-1.4-.8-3-1.3-3.7-.9-.8.6-.9-.2-.4-2.6.4-1.9 1.2-3.7 1.7-4 1.2-.8 0-5.1-1.6-6.1-.7-.5-.5-1.6.7-3.8 1-1.6 1.5-3 1.1-3-.4 0 .3-.9 1.6-2s2.9-2 3.7-2c.7 0 1.3-.5 1.3-1 0-.6.9-1 2-1s2 .4 2 .9c0 1.2 4.9 2 5.6 1 .9-1.5 2.6-1 2 .6-.6 1.8 1.5 2 3.2.3.9-.9 1.8-.9 3.8.1 2.2 1 2.8.9 3.9-.5.8-1.2 1.4-1.4 1.9-.5.4.6 1.2.8 1.9.4.6-.4 2.7-.6 4.7-.5 1.9.1 4.6-.4 6-1.1 2.1-1.1 2.7-1.1 3.7.2s.9 1.8-.4 2.9zm211.9 19.4c-.7.7-1.2.8-1.2.2 0-1.4 1.2-2.6 1.9-1.9.2.3-.1 1.1-.7 1.7zm-446.9 11.3c-.3.9-.8 1.4-1 1.1-.3-.3-.2-.9.2-1.5.9-1.6 1.5-1.3.8.4zm-8.5 6.5c-2.3 6.8-3.7 7.8-3.4 2.2.3-4.4 2.1-8.2 4.1-8.2 1.1 0 1 1.2-.7 6zm2.6 1.6c-.5 2.1-.4 2.5.7 2 .8-.4.5 0-.5.8-2.1 1.7-4.1 2.2-3.2.7.3-.4 1-2 1.5-3.5 1.3-3.4 2.3-3.4 1.5 0zM398 451.5c1.4.2 3.8.8 5.3 1.4 2.7 1.1 2.9 1.4 2.4 5.7-.4 4-1.1 5.2-6.7 10.6-5.8 5.5-6.4 6.4-6.8 10.9-.4 4-.2 4.9 1.1 4.9 2.7 0 3.6 3.3 4.1 13.6.6 12.3-.3 17-3 16.6-1-.1-2.6-.3-3.5-.4-.9-.1-1.5-.7-1.2-1.4.2-.6-.3-1.4-1.1-1.7-.9-.4-1.6-1.2-1.6-1.9s-.9-3-1.9-4.9c-5.7-10.7-8.6-28-5.7-33.8.9-1.6 1.6-4.5 1.6-6.3 0-4.2 1.5-9.3 3.6-12.5 1.4-2.3 2-2.4 6.2-1.8 2.6.4 5.8.8 7.2 1zm241.5 1.5c.7 1.2-1.2 4-2.6 4-1 0-1.2-3.4-.2-4.3.9-1 2.1-.9 2.8.3zm-10.2 18.2c-.8 3.3-2 4.5-5.4 5.7l-2.9 1 3.7-4.4c4.1-5 5.4-5.6 4.6-2.3zm-6.8 8.8c-.3.5-.1 1 .6 1s-.4 1.5-2.4 3.4c-2 1.8-3.7 3.9-3.7 4.5 0 .7-.4.9-1 .6-1.7-1.1-1.1-2.9 2.5-6.8 3.2-3.5 5.4-5 4-2.7zM174 492.1c0 .5-.4.9-1 .9-.5 0-1-.7-1-1.6 0-.8.5-1.2 1-.9.6.3 1 1 1 1.6zm289.5 1c-.7 1.1-3.5 1.2-3.5.1 0-.4.9-.8 2-.9 1.1-.1 1.8.2 1.5.8zM621.1 524c2.3 1.3 2.4 3.7.3 8-1.5 2.9-2 3.2-5.2 2.6-2-.3-4.2-1.2-5-2-1.2-1.2-.9-1.9 2.3-5.5 4-4.4 4.6-4.7 7.6-3.1zm26.5 11.5c-2.1 1.6-3.2 1.3-2.1-.4.3-.6 1.4-1.1 2.3-1.1 1.5.1 1.5.2-.2 1.5zm-33.7 4.4c.6 1 .8 2.1.5 2.3-.2.3 1.3.1 3.4-.5 4-1.1 7.2-.5 7.2 1.2 0 .6-1.3 2.6-3 4.4-3.3 3.8-3.9 8-1.6 10.6.7.9 1.7 2.6 2 3.8.8 2.4.5 2.6-4.9 2.5-2.9-.1-2.9-.1.5.8 1.9.4 4.1.5 5 0 2.5-1.3 10.2 0 9.6 1.6-.7 1.7-.1 1.7 2.4.2 2.8-1.8 7.2 0 8.1 3.4.5 1.8.3 3.1-.7 3.9-1.7 1.4-4.4.5-4.4-1.4 0-.8-.6-2-1.4-2.6-1.1-.9-1.5-.8-2 .4-.4 1.2-1.4 1.4-4 1-5.4-1.1-7.6.1-7.6 3.9 0 2.6-.7 3.9-3.2 5.8-5.8 4.3-6 4.4-5.7.7.1-1.9-.2-4.2-.6-5.2-.4-1-.5-3.3-.2-5.2.4-2.6.2-3.7-1.1-4.4-1.5-.9-1.5-1.1.2-3 1-1.1 2.4-1.7 3.2-1.4.8.3 1.4 0 1.4-.7 0-.6-.4-.9-.9-.6-.5.3-1.2-.6-1.5-2-.4-1.4-1.6-3.8-2.7-5.3-2.3-3.2-3.5-12.7-1.8-14.8 1.6-1.8 2.6-1.6 3.8.6zm12.8 17.8c1.1 1.6 1.3 2.7.6 3.4-1.4 1.4-3.9.2-5.2-2.7-.9-2-.8-3 .7-5.2l1.7-2.6.3 2.4c.2 1.3 1.1 3.4 1.9 4.7zM567 568c0 1.5.7 2 2.5 2 1.4 0 2.5-.5 2.5-1 0-.6.4-1 .9-1 1.5 0 4.2 3.1 3.6 4.1-.4.5.1.6.9.3 1.3-.5 1.3-.2-.1 2.8-2.7 5.5-5.7 6-5.1 1 .2-1.8-.2-2.6-1-2.4-.7.1-2.3-.4-3.5-1.3-1.2-.8-1.7-1.5-1.2-1.5.6 0 .2-.7-.9-1.5-1-.7-1.5-1.8-1.1-2.4 1-1.8 2.5-1.2 2.5.9zm-8 1.8c0 .5-1.1 1.9-2.4 3.2l-2.5 2.3.3-2.9c.2-1.6.4-3 .5-3.2.3-.6 4.1-.1 4.1.6zm5 4.4c2.7 2.9 2.2 6-1 6.8-6.2 1.7-10-2.9-5.6-6.7 3.4-2.9 4-2.9 6.6-.1zm47 6.2c0 .3-.4.8-1 1.1-.5.3-1 .1-1-.4 0-.6.5-1.1 1-1.1.6 0 1 .2 1 .4zm7.5 7c-2.5 3.3-4.4 4.6-6.7 4.6-1.8 0-.4-1.8 3.7-4.9 5.3-4 6.2-3.9 3 .3zm14.6-1.4c4.4 1.2 7.6 5.4 5.9 7.5-.6.8-2.7 1.9-4.6 2.5-3.1 1.1-3.6.9-5.9-1.7-3.2-3.6-4-6-2.5-7.8 1.5-1.8 2.3-1.8 7.1-.5zm-28.1 2c0 .5-.9 1-2 1s-2-.5-2-1c0-.6.9-1 2-1s2 .4 2 1zm16.8 6.9c1.7 5.7 1.5 7-1.5 8.2-4.5 1.7-12.7-.9-11.6-3.7.5-1.4 10-8.4 11.4-8.4.3 0 1.1 1.7 1.7 3.9zm-45.3 1.2c-.9 1.4-4.2 1.1-4.8-.5-.3-.8-.1-1.7.6-1.9 1.7-.6 4.9 1.2 4.2 2.4zm48.5 9.3c0 .2-.7.6-1.5 1-.8.3-1.5.1-1.5-.4 0-.6.7-1 1.5-1s1.5.2 1.5.4zm7 .6c0 1.5-2.7 2.3-4.7 1.6-1.5-.6-1.5-.8-.3-1.6 2-1.3 5-1.2 5 0zm1.2 7.5c2.3.2 5.8 3.4 5.8 5.3 0 2.4-4.3 10.3-6.1 11.3-1.4.7-1.9.1-2.9-4.2-.7-2.7-1-6.3-.7-7.9.4-1.7.2-3-.5-3.2-.6-.2-.8-1-.4-1.6.4-.7 1.3-.9 1.9-.5.6.4 2 .8 2.9.8zm-495.7.5c.3.5-.1 1-.9 1s-1.8-.5-2.1-1c-.3-.6.1-1 .9-1s1.8.4 2.1 1zm485.5 4c-1 1.9-5 4.7-5 3.5 0-1.4 3.6-5.4 4.8-5.5 1 0 1 .5.2 2zm-472 8.1c0 1.8-.2 1.9-1.5.5-.8-.8-1.5-1.7-1.5-2 0-.3.7-.6 1.5-.6.9 0 1.5.9 1.5 2.1zm6 1.9c0 .5-.4 1-1 1-.5 0-1-.5-1-1 0-.6.5-1 1-1 .6 0 1 .4 1 1zm8.9 7.6c-.9 1.1-1.5 1.2-2.3.4-.8-.8-.7-1.3.4-2 2-1.2 3.3-.1 1.9 1.6zm3.4 8.1c-.9 2.3-2 1.4-1.5-1.3.3-1.7.7-2.2 1.2-1.3.5.7.6 1.8.3 2.6zM167 653c0 .5-.4 1-1 1-.5 0-1-.5-1-1 0-.6.5-1 1-1 .6 0 1 .4 1 1zm-12.1 12.8c1.3 1.3 1.3 1.6-.3 2.8-1.8 1.3-4.6.9-4.6-.7 0-.5-.7-.9-1.5-.9-1.8 0-1.9-1.2-.3-2.8 1.4-1.4 4.5-.6 6.7 1.6zM144 665c0 .5-.5 1-1.1 1-.5 0-.7-.5-.4-1 .3-.6.8-1 1.1-1 .2 0 .4.4.4 1zm-16 27c0 2.1-2.9 3.5-4.3 2.1-.5-.5-.2-1.6 1-2.8 2.1-2.3 3.3-2 3.3.7zm-5.5 11.9c.3.5.2 1.2-.3 1.5-.5.3-.9-.1-.9-.9 0-1.7.3-1.9 1.2-.6zm5.5 9.5c.7 1.4 1 2.9.7 3.3-.4.3-.7-.1-.7-.9 0-.9-.8-1.8-1.8-2.1-1.1-.2-2.1-1.4-2.5-2.5-.4-1.8-.2-2 1.2-1.3.9.5 2.3 2.1 3.1 3.5zm10 3.6c0 .5-1.2 2.2-2.7 3.7-1.4 1.5-2.3 2.3-2 1.6.4-.6.2-1.3-.4-1.5-.7-.2-.2-1.4 1.2-3 2.2-2.5 3.9-2.8 3.9-.8zm-7.2 2.2c-.3.7-1.9 1.7-3.6 2.2-1.8.5-3.2 1.3-3.2 1.9 0 .5.7.7 1.5.3.9-.3 1.5 0 1.5.8s-.9 1.2-2.2 1.1c-1.3-.1-2.9-.3-3.5-.4-.7 0-1.3-.6-1.3-1.1 0-1.3 6.1-5.1 7.2-4.4.4.3.8 0 .8-.5 0-.6.7-1.1 1.6-1.1.9 0 1.4.6 1.2 1.2zm11.2 2.3c-.7.9-1.5 1.3-1.8 1-.3-.2.1-1.1.8-2 .7-.9 1.5-1.3 1.8-1 .3.2-.1 1.1-.8 2zm-10 1.9c0 .3-.4.8-1 1.1-.5.3-1 .1-1-.4 0-.6.5-1.1 1-1.1.6 0 1 .2 1 .4zm6 2.5c-.9 1.9-3 2.9-3 1.6 0-.7 3.4-4.2 3.8-3.9.2.1-.1 1.2-.8 2.3zm-7.8 11c-1.6 2.2-3.5 5.4-4.2 7.1-1.2 2.9-3 4.1-3 1.9 0-.5-.4-.7-1-.4-.5.3-1-.1-1-.9 0-1.9 1.1-2.1 2.8-.4.9.9 1.2.7 1.2-.9 0-1.2.5-2.5 1-2.8 1.3-.8.9-4.7-.5-5.7-.5-.4-.6-1-.2-1.4.3-.4 1.3-.1 2.1.5 1.2 1 1.8.9 3.3-.6 3-3.1 2.6-.8-.5 3.6zm-13.7 8.7c1.1-.4 1.5-.2 1.2.6-.2.7-1 1.2-1.6 1-1.4-.3-1.5 1.5-.1 2.3.6.3 1 1.4 1 2.3 0 1.5-.2 1.5-1 .2s-1-1.3-1 .2c0 .9-.4 1.9-.8 2.2-.4.2-.8-2.1-.9-5.1 0-3.2.2-5 .7-4.3.4.7 1.5 1 2.5.6zm6.5 4.3c0 .8-1.9 3.7-2.1 3.1 0-.3-.2-1.2-.4-2.1-.1-.9.4-1.6 1.1-1.6.8 0 1.4.3 1.4.6zm-2.7 5.6c-.3.9-.8 1.4-1 1.1-.3-.3-.2-.9.2-1.5.9-1.6 1.5-1.3.8.4zm-6.8 1.4c.3.5.1 1.2-.5 1.6-.5.3-1-.1-1-.9 0-1.8.6-2.1 1.5-.7z"/><path d="M423.5 400c.4.6 1.1.8 1.6.5 1.4-.9 1.1-1.5-.7-1.5-.8 0-1.2.5-.9 1zM396 416c0 .5.4 1 .9 1 .6 0 1.3-.5 1.6-1 .3-.6-.1-1-.9-1-.9 0-1.6.4-1.6 1zM392 513c0 .5.5 1 1 1 .6 0 1-.5 1-1 0-.6-.4-1-1-1-.5 0-1 .4-1 1zM318.7 162.7c-.4.3-.7 1.3-.7 2.2.1 1.3.3 1.3 1.1-.2 1.1-1.9.8-3.3-.4-2zM277 205c0 .5.5 1 1 1 .6 0 1-.5 1-1 0-.6-.4-1-1-1-.5 0-1 .4-1 1zM281.5 206c-.3.5.1 1 .9 1 .9 0 1.6-.5 1.6-1 0-.6-.4-1-.9-1-.6 0-1.3.4-1.6 1zM535.7 312.7c-2.1.3-4.8 1.4-5.9 2.5-1.4 1.4-2.3 1.7-2.7.9-.6-.9-2.3-.8-6.7.4-3.2.8-7.2 1.8-8.9 2.1-1.6.3-3.4.9-3.9 1.5-.6.5-1.7.9-2.6.9-.9 0-2.7 1.1-4 2.5-1.2 1.3-2.8 2.2-3.4 1.8-.6-.3-.8-.3-.4.2.4.4-.2 1.9-1.3 3.4-2.2 2.7-1 4.2 1.6 2.1 1.2-1 1.5-.9 1.5.5s.6 1.5 3.3 1c1.7-.4 4.5-1.4 6-2.2 3.4-1.7 4.9-1 1.7.7-4.6 2.4-1 1.9 4.6-.7 3.2-1.5 6.4-2.9 6.9-3.2.6-.2.1.7-1 1.9-2.1 2.4-1.1 2.1 3.5-1 1.4-1 3.6-2.1 5-2.5 2.2-.7 2.3-.6 1.1.9-1.6 1.9-1.2 2 2.3.6 1.5-.5 4.2-1.1 6.2-1.4 2.4-.2 4.4-1.3 6.1-3.2 1.3-1.6 2.2-2.3 1.8-1.7-.9 1.9.6 1.6 2.2-.5.9-1.1 1.6-1.3 1.9-.6.6 1.3 6.4-.4 6.4-1.8 0-1.1-10.4-.2-12.9 1.1-2.5 1.4-4.1 1.4-4.1.1 0-.6 1.1-1 2.5-1s2.4-.5 2.3-1.2c-.2-.6.8-1.4 2.2-1.8 1.5-.3 2-.9 1.3-1.3-.6-.4-1.8-.4-2.7-.1-.9.3-1.6.1-1.6-.5 0-1.1-.9-1.1-8.3-.4zm1.3 3.7c0 .2-.9.6-2 .9-1.1.3-2 .1-2-.4s.9-.9 2-.9 2 .2 2 .4zM646.2 315.2c-1.4 1.4-1.6 2.8-.3 2.8.9 0 2.4-3 1.8-3.6-.2-.2-.9.2-1.5.8zM519.2 342.9c-7.2 2.5-16.4 11.4-10 9.8 1.5-.4.6.9-3.3 5-5.1 5.2-5.2 5.5-2.5 4.9 2.5-.6 2.8-.5 1.7.7-.6.8-2.3 1.8-3.6 2.1-5.9 1.5-1.6 2.3 10.3 2 7-.2 13.9-.4 15.4-.4 6.3 0 12.8-4.2 12.8-8.4 0-1.3-.3-1.3-2.7 0-2.6 1.3-2.8 1.3-3.1-.7-.5-2.7 1.5-4.1 4.6-3.4 1.4.4 2.1.1 2-.7-.9-4 10 .7 14.4 6.2 2.2 2.9 6.1 4 7.3 2 .3-.5-.8-1.6-2.4-2.5-1.7-.8-3.5-2.4-4.1-3.5-.6-1-3-2.8-5.5-3.9s-4.5-2.5-4.5-3c0-.6-.8-1.1-1.7-1.1-2.9 0-15.7-3.2-16.8-4.2-.6-.6-.5-1.2.5-1.8 2.6-1.7-3-1.1-8.8.9zM642.8 345.7c-1.7.4-3.4 3.3-1.9 3.3.4 0 1.6-.9 2.6-2s1.6-1.9 1.4-1.9c-.2.1-1.1.3-2.1.6zM559.6 353.5c-1.1.8-1.5 1.5-1 1.5.6 0 1.9-.7 3-1.5 1-.8 1.5-1.4.9-1.4-.5 0-1.9.6-2.9 1.4zM193 382c-.8.5-1.2 1.2-.9 1.5.4.3 1.2-.1 1.9-1 1.4-1.7 1.1-1.9-1-.5zM600.5 393.9c-.3.6-1 .9-1.5.6-.9-.5-1.3.5-2.5 7.2-.5 2.7-.5 2.7 1.1.8 2-2.5 4.7-8.5 4.1-9.2-.3-.2-.8.1-1.2.6zM665.7 401.7c-1 .9-.9 2.3.2 2.3.5 0 1.1-.7 1.5-1.5.5-1.5-.5-2-1.7-.8zM449.6 424.6c-.9 2.4-.7 2.8.9 1.4 1.7-1.4 2-3 .6-3-.5 0-1.2.7-1.5 1.6zM444.1 426.6c0 1.1.3 1.4.6.6.3-.7.2-1.6-.1-1.9-.3-.4-.6.2-.5 1.3zM172.5 473c-.3.5-.1 1 .4 1 .6 0 1.1-.5 1.1-1 0-.6-.2-1-.4-1-.3 0-.8.4-1.1 1zM526.6 489.7c-1.2 1.2-.5 2.3 1.4 2.3 1.1 0 2-.4 2-.9 0-1.1-2.6-2.2-3.4-1.4zM140.1 558.6c0 1.1.3 1.4.6.6.3-.7.2-1.6-.1-1.9-.3-.4-.6.2-.5 1.3zM128 580.1c0 1.1.5 1.7 1 1.4.6-.3 1-1.3 1-2.1s-.4-1.4-1-1.4c-.5 0-1 .9-1 2.1zM126.5 585.1c-.4.6-.5 1.2-.2 1.5.2.3.7-.2 1-1.1.7-1.7.1-2-.8-.4zM139.1 586.6c0 1.1.3 1.4.6.6.3-.7.2-1.6-.1-1.9-.3-.4-.6.2-.5 1.3zM463.5 586c-.3.5.1 1 1 1s1.3-.5 1-1c-.3-.6-.8-1-1-1-.2 0-.7.4-1 1zM123 590.5c-.7.9-1.1 1.8-.8 2 .3.3 1.1-.1 1.8-1s1.1-1.8.8-2c-.3-.3-1.1.1-1.8 1zM136.6 641.7c-.6 1.4-.5 1.5.5.6.7-.7 1-1.5.7-1.8-.3-.3-.9.2-1.2 1.2zM144 657.5c-1 1.2-1 1.5.4 1.5.9 0 1.6-.7 1.6-1.5s-.2-1.5-.4-1.5-.9.7-1.6 1.5zM116 716c0 .5.5 1 1.1 1 .5 0 .7-.5.4-1-.3-.6-.8-1-1.1-1-.2 0-.4.4-.4 1zM119 732.5c0 .8.7 1.5 1.5 1.5s1.5.5 1.5 1.2c0 .6.2.9.5.6.9-.8-.5-3.6-2.1-4.2-.8-.3-1.4.1-1.4.9zM108.5 747.1c-.4.6-.5 1.2-.2 1.5.2.3.7-.2 1-1.1.7-1.7.1-2-.8-.4z"/></svg>